<?xml version="1.0" standalone="no"?>
<!DOCTYPE svg PUBLIC "-//W3C//DTD SVG 20010904//EN"
 "http://www.w3.org/TR/2001/REC-SVG-20010904/DTD/svg10.dtd">
<svg version="1.0" xmlns="http://www.w3.org/2000/svg"
 width="1024.000000pt" height="1024.000000pt" viewBox="0 0 1024.000000 1024.000000"
 preserveAspectRatio="xMidYMid meet">
<metadata>
Created by potrace 1.11, written by Peter Selinger 2001-2013
</metadata>
<g transform="translate(0.000000,1024.000000) scale(0.100000,-0.100000)"
fill="#000000" stroke="none">
<path d="M5077 9404 c-1 -1 -74 -5 -162 -8 -88 -4 -178 -9 -200 -11 -189 -20
-230 -25 -330 -41 -49 -8 -103 -17 -120 -20 -16 -3 -58 -11 -91 -19 -34 -8
-73 -16 -85 -19 -82 -15 -431 -123 -496 -152 -17 -8 -34 -14 -38 -14 -4 0 -70
-28 -147 -61 -336 -148 -647 -337 -943 -574 -49 -40 -99 -81 -110 -91 -11 -11
-41 -37 -65 -58 -152 -132 -409 -402 -535 -561 -22 -27 -43 -52 -46 -55 -13
-11 -146 -200 -214 -304 -281 -430 -496 -974 -580 -1464 -25 -149 -29 -178
-40 -277 -3 -27 -7 -68 -10 -90 -26 -237 -26 -665 1 -935 24 -249 102 -635
166 -825 11 -33 21 -67 23 -76 2 -9 29 -83 60 -165 67 -174 198 -449 279 -583
31 -51 56 -95 56 -97 0 -8 214 -319 230 -334 3 -3 30 -36 60 -75 119 -152 234
-279 415 -455 92 -90 119 -114 214 -196 19 -16 39 -34 45 -39 28 -25 198 -156
261 -200 218 -154 491 -311 686 -395 41 -17 88 -38 104 -45 130 -58 476 -171
612 -200 10 -2 51 -11 90 -19 40 -9 85 -18 100 -20 151 -26 216 -36 262 -41
30 -4 62 -8 73 -10 135 -26 818 -26 1028 0 118 14 189 24 220 30 13 3 42 7 65
11 217 31 550 126 820 233 127 51 409 186 470 226 17 11 46 29 65 39 19 11 78
46 130 80 582 371 1123 939 1464 1536 60 105 191 377 235 488 104 261 204 621
236 847 3 22 10 65 15 95 5 30 12 82 15 115 4 33 8 74 10 90 30 276 26 721
-10 1011 -4 32 -9 70 -10 84 -3 22 -17 114 -30 192 -38 222 -148 601 -230 793
-83 195 -156 344 -233 480 -112 196 -305 470 -459 650 -67 78 -109 124 -250
270 -236 245 -602 529 -918 711 -493 285 -1056 465 -1620 520 -38 3 -81 8 -95
10 -14 1 -101 6 -195 9 -93 4 -187 8 -208 9 -20 1 -38 1 -40 0z m-1547 -2087
c30 -15 66 -70 110 -167 18 -41 59 -129 90 -195 31 -66 69 -148 85 -182 17
-38 34 -63 44 -64 19 -1 54 -6 136 -19 33 -5 80 -12 105 -15 25 -3 56 -8 70
-10 14 -2 43 -7 65 -10 252 -33 283 -44 315 -112 41 -88 36 -95 -369 -481
l-95 -89 14 -89 c8 -49 15 -93 16 -99 1 -5 7 -39 13 -75 6 -36 13 -76 16 -90
3 -14 7 -38 10 -55 2 -16 6 -39 8 -50 18 -82 28 -172 23 -200 -13 -67 -112
-119 -176 -91 -14 6 -70 36 -125 67 -55 31 -140 78 -190 104 -49 27 -110 60
-135 74 -97 56 -92 55 -141 28 -24 -13 -120 -66 -214 -117 -93 -52 -183 -102
-200 -112 -126 -75 -213 -65 -256 28 -14 31 -14 43 -2 112 7 42 16 93 19 112
7 44 10 66 23 138 6 31 13 73 16 92 3 19 10 58 15 85 5 28 12 70 15 94 l6 43
-152 147 c-303 291 -317 305 -324 343 -5 26 -1 49 14 82 24 55 70 80 162 90
31 4 65 8 75 10 24 4 109 17 149 22 45 6 248 36 265 39 8 2 24 4 35 4 13 1 25
13 34 34 13 30 48 104 156 332 26 55 56 120 67 145 22 50 53 88 83 100 30 13
97 11 125 -3z m3331 -12 c25 -19 38 -44 122 -225 25 -52 67 -142 94 -200 27
-58 56 -119 63 -136 13 -30 18 -32 99 -44 47 -6 97 -14 111 -16 14 -2 45 -6
70 -9 25 -3 70 -10 100 -15 30 -5 75 -12 100 -15 179 -23 214 -38 242 -102 36
-81 28 -95 -155 -273 -89 -87 -195 -189 -235 -227 -81 -76 -76 -62 -57 -173 2
-14 9 -54 14 -90 6 -36 13 -76 16 -90 3 -14 8 -43 10 -65 3 -22 8 -47 11 -56
2 -10 6 -31 9 -49 2 -17 6 -43 9 -58 3 -15 8 -47 12 -72 3 -25 7 -47 9 -49 7
-6 -23 -70 -39 -87 -29 -28 -81 -44 -115 -34 -17 5 -31 7 -31 5 0 -3 -134 70
-280 152 -123 69 -259 143 -264 143 -3 0 -108 -57 -233 -126 -280 -155 -335
-182 -369 -178 -46 5 -78 23 -103 59 -25 38 -26 79 -1 205 11 59 18 97 26 145
2 17 6 41 9 55 3 14 7 41 10 60 3 19 7 46 10 60 3 14 7 39 9 55 11 69 17 99
21 105 4 6 -105 113 -394 389 -75 73 -90 97 -86 142 5 50 29 91 66 113 25 15
129 35 264 51 22 3 51 7 65 10 14 2 41 6 60 9 53 7 193 28 210 31 8 2 24 4 36
4 15 1 28 17 49 64 33 71 88 188 169 361 31 65 56 122 56 125 0 10 52 57 70
65 29 11 116 0 141 -19z m-3866 -3299 c11 -3 58 -16 105 -31 135 -41 436 -107
595 -130 22 -3 54 -8 70 -10 17 -3 44 -7 60 -9 17 -2 71 -9 120 -15 507 -63
1257 -82 1825 -47 36 3 110 7 165 11 55 3 111 8 125 10 14 3 54 7 90 10 36 3
82 8 103 10 70 9 122 16 147 20 14 2 45 7 70 10 25 3 86 13 135 21 50 9 104
18 120 20 37 6 190 40 270 60 33 8 71 17 84 20 13 3 31 9 40 13 31 16 157 44
211 47 150 7 275 -126 273 -291 -2 -134 -105 -404 -218 -565 -179 -258 -433
-475 -780 -667 -277 -154 -532 -255 -815 -322 -128 -31 -149 -35 -229 -47 -25
-4 -55 -8 -66 -10 -140 -26 -523 -25 -755 2 -284 32 -632 138 -935 285 -599
290 -970 655 -1119 1099 -14 41 -28 91 -31 110 -3 19 -8 44 -12 55 -25 84 9
203 77 271 64 63 118 85 195 79 33 -2 69 -6 80 -9z"/>
</g>
</svg>
