<?xml version="1.0" standalone="no"?>
<!DOCTYPE svg PUBLIC "-//W3C//DTD SVG 20010904//EN"
 "http://www.w3.org/TR/2001/REC-SVG-20010904/DTD/svg10.dtd">
<svg version="1.0" xmlns="http://www.w3.org/2000/svg"
 width="1024.000000pt" height="1024.000000pt" viewBox="0 0 1024.000000 1024.000000"
 preserveAspectRatio="xMidYMid meet">
<metadata>
Created by potrace 1.11, written by Peter Selinger 2001-2013
</metadata>
<g transform="translate(0.000000,1024.000000) scale(0.100000,-0.100000)"
fill="#000000" stroke="none">
<path d="M5087 9404 c-1 -1 -78 -5 -172 -8 -174 -7 -200 -9 -295 -21 -30 -3
-75 -8 -100 -11 -52 -6 -83 -11 -165 -25 -50 -8 -99 -18 -275 -54 -34 -7 -241
-66 -314 -90 -340 -109 -680 -275 -1001 -489 -66 -44 -126 -86 -135 -92 -8 -7
-60 -48 -115 -90 -266 -206 -552 -490 -781 -774 -69 -86 -234 -315 -234 -325
0 -3 -11 -21 -24 -38 -53 -71 -215 -371 -281 -522 -132 -300 -242 -669 -289
-970 -11 -66 -17 -101 -21 -125 -2 -14 -7 -56 -11 -95 -3 -38 -8 -78 -10 -89
-17 -92 -24 -613 -10 -791 9 -117 16 -194 21 -225 2 -14 7 -50 10 -80 3 -30 8
-62 10 -70 2 -8 7 -35 10 -60 4 -25 16 -88 26 -140 26 -121 23 -111 49 -210
12 -47 23 -92 25 -100 13 -66 121 -363 186 -512 236 -545 660 -1109 1148
-1528 35 -30 69 -60 75 -65 6 -6 52 -42 101 -80 453 -353 919 -587 1467 -735
43 -12 85 -23 95 -25 10 -2 50 -10 88 -19 82 -17 289 -52 360 -61 28 -3 66 -8
85 -10 39 -5 155 -15 240 -21 81 -5 477 -5 535 0 28 3 86 8 130 11 144 10 206
18 460 61 199 34 505 123 739 215 676 268 1283 728 1788 1354 231 287 465 688
595 1020 55 140 65 167 68 175 0 3 17 57 37 120 30 95 68 231 83 300 31 139
44 206 51 260 2 19 6 46 9 60 8 44 17 113 29 225 26 234 26 783 2 935 -3 14
-7 52 -11 85 -7 71 -13 111 -25 185 -5 30 -12 69 -15 87 -38 226 -145 600
-230 798 -87 204 -157 347 -241 492 -162 281 -380 573 -604 807 -588 617
-1209 999 -1970 1210 -86 24 -310 73 -365 80 -27 4 -57 9 -65 11 -18 5 -84 15
-125 20 -51 5 -168 18 -200 21 -55 5 -434 21 -438 18z m290 -838 c93 -7 189
-16 222 -22 13 -2 45 -6 70 -9 78 -11 292 -55 371 -77 41 -11 80 -21 85 -23 6
-1 17 -5 25 -8 8 -3 53 -18 100 -33 190 -61 444 -180 640 -299 87 -53 126 -79
249 -166 168 -118 467 -397 618 -577 217 -257 334 -434 473 -717 88 -181 95
-196 147 -344 96 -271 154 -550 181 -864 14 -164 7 -595 -12 -727 -3 -19 -8
-55 -11 -80 -3 -25 -7 -54 -9 -65 -2 -11 -7 -42 -11 -70 -5 -27 -9 -52 -10
-55 0 -3 -4 -21 -8 -40 -4 -19 -9 -45 -12 -57 -3 -13 -7 -33 -10 -44 -2 -12
-12 -47 -21 -78 -9 -31 -17 -63 -19 -71 -20 -100 -184 -516 -222 -561 -7 -8
-13 -22 -13 -30 0 -8 -4 -19 -9 -24 -5 -6 -18 -26 -28 -45 -11 -19 -32 -57
-47 -85 -71 -127 -255 -380 -386 -530 -60 -69 -312 -318 -380 -376 -391 -332
-808 -557 -1275 -688 -144 -40 -356 -82 -483 -96 -26 -3 -60 -7 -77 -10 -157
-22 -673 -22 -778 0 -12 2 -51 7 -87 10 -92 9 -308 50 -442 84 -369 95 -695
243 -1021 464 -65 44 -123 84 -130 91 -7 6 -41 33 -77 61 -502 386 -923 974
-1123 1566 -58 171 -114 389 -133 517 -3 20 -7 44 -9 52 -2 8 -7 42 -11 75 -3
33 -8 69 -10 80 -19 98 -26 564 -11 755 5 57 10 107 12 110 2 3 6 28 9 57 37
336 151 713 315 1043 105 212 271 466 415 635 28 33 64 76 81 95 35 42 293
299 351 352 65 57 225 181 327 251 313 217 673 381 1037 472 153 38 178 43
280 60 25 4 52 9 60 10 8 2 44 6 80 10 36 3 72 8 80 10 8 2 62 7 120 10 58 4
106 7 107 8 4 4 349 -2 420 -7z"/>
<path d="M3710 7242 c-46 -7 -72 -46 -172 -252 -165 -338 -171 -350 -182 -359
-6 -5 -49 -14 -96 -20 -47 -6 -96 -13 -109 -16 -13 -2 -49 -7 -80 -11 -31 -3
-58 -8 -61 -9 -3 -2 -37 -6 -75 -10 -39 -4 -72 -9 -75 -10 -3 -2 -30 -6 -60
-10 -100 -12 -142 -45 -158 -122 -17 -78 -4 -97 188 -273 57 -52 129 -118 159
-146 31 -29 73 -67 93 -86 25 -22 36 -41 34 -54 -2 -10 -7 -39 -11 -64 -4 -25
-9 -52 -10 -61 -2 -9 -6 -32 -9 -50 -3 -19 -7 -43 -10 -54 -2 -11 -7 -40 -11
-65 -4 -25 -10 -56 -12 -70 -53 -284 -50 -315 29 -356 65 -34 81 -27 585 236
l72 38 53 -27 c557 -289 545 -284 615 -241 58 35 69 75 49 180 -4 24 -42 246
-51 300 -8 47 -35 205 -40 230 -4 19 3 32 29 55 19 16 63 57 98 90 189 176
283 261 298 272 25 17 52 79 52 118 0 18 -8 49 -17 68 -29 62 -49 69 -282 102
-21 3 -67 10 -103 15 -36 5 -85 12 -110 15 -25 4 -56 8 -70 10 -14 2 -45 7
-70 10 -68 9 -74 12 -89 47 -8 18 -72 150 -142 294 -108 222 -131 262 -155
272 -37 15 -62 19 -94 14z"/>
<path d="M6454 7235 c-16 -7 -37 -21 -46 -31 -16 -19 -260 -512 -273 -553 -6
-21 -18 -26 -90 -36 -63 -9 -176 -25 -220 -31 -22 -3 -47 -7 -55 -9 -8 -2 -40
-7 -70 -10 -113 -13 -220 -34 -243 -49 -45 -30 -69 -98 -55 -155 12 -47 20
-56 178 -201 115 -106 193 -178 262 -242 l38 -35 -14 -74 c-8 -41 -17 -96 -21
-123 -3 -27 -8 -52 -9 -55 -2 -3 -7 -26 -10 -51 -3 -25 -8 -56 -11 -70 -10
-52 -34 -191 -41 -243 -9 -70 54 -137 130 -137 37 0 53 7 545 261 l53 28 62
-33 c33 -19 159 -84 278 -145 238 -122 271 -131 336 -91 52 32 58 62 37 185
-3 17 -8 46 -11 65 -3 19 -8 44 -10 55 -11 62 -55 324 -59 345 -2 14 -6 39 -9
56 -5 26 -1 35 23 55 16 13 73 65 127 116 55 50 113 104 129 118 183 166 212
209 193 284 -20 75 -61 105 -163 116 -33 4 -63 9 -66 11 -3 2 -32 6 -64 10
-32 3 -66 7 -76 9 -9 2 -39 6 -66 10 -26 4 -59 9 -73 11 -14 2 -64 9 -111 15
-48 6 -90 14 -95 18 -5 3 -19 26 -31 51 -258 533 -260 536 -292 550 -45 18
-73 20 -107 5z"/>
<path d="M3124 4280 c-52 -24 -92 -64 -115 -114 -23 -50 -24 -89 -4 -186 34
-165 92 -302 192 -452 49 -74 221 -255 303 -319 72 -56 201 -144 255 -174 28
-15 55 -31 61 -36 5 -4 68 -37 140 -72 141 -70 264 -121 390 -162 77 -24 94
-29 153 -41 13 -3 34 -10 45 -16 12 -6 22 -10 24 -9 2 2 71 -9 92 -14 3 -1 28
-5 55 -10 28 -4 59 -9 69 -11 136 -25 535 -24 682 2 404 70 693 175 1030 375
282 169 523 408 636 634 24 47 76 182 83 215 26 119 35 171 35 201 0 56 -43
129 -97 166 -80 53 -110 52 -308 -7 -38 -11 -79 -22 -90 -24 -11 -3 -49 -12
-85 -21 -73 -18 -82 -20 -200 -41 -47 -9 -92 -17 -100 -19 -8 -2 -37 -6 -65
-9 -27 -4 -62 -9 -76 -11 -37 -7 -96 -14 -159 -20 -30 -3 -69 -8 -86 -10 -16
-2 -73 -7 -125 -11 -51 -3 -110 -8 -129 -9 -282 -22 -976 -22 -1220 0 -25 2
-85 7 -135 10 -49 3 -101 8 -115 10 -14 2 -55 6 -92 10 -37 3 -75 7 -85 9 -10
2 -40 7 -68 10 -204 26 -494 87 -675 143 -109 33 -166 36 -216 13z"/>
</g>
</svg>
